<svg width="504" height="72" viewBox="0 0 504 72" fill="none" xmlns="http://www.w3.org/2000/svg">
<path d="M28.2813 59.1406H24.7812V60H28.2813V59.1406Z" fill="black"/>
<path d="M28.4766 22H25.5781V38H28.4766V22ZM36.3246 38.2344C39.3402 38.2344 41.2621 36.4453 41.4652 33.8984H38.7621C38.5199 35.1875 37.5902 35.9297 36.348 35.9297C34.5824 35.9297 33.4418 34.4531 33.4418 32C33.4418 29.5781 34.6059 28.125 36.348 28.125C37.7074 28.125 38.5434 29 38.7621 30.1562H41.4652C41.2699 27.5547 39.2387 25.8438 36.309 25.8438C32.7934 25.8438 30.5746 28.3828 30.5746 32.0469C30.5746 35.6797 32.7387 38.2344 36.3246 38.2344ZM48.6219 38.2344C52.1375 38.2344 54.3719 35.7578 54.3719 32.0469C54.3719 28.3281 52.1375 25.8438 48.6219 25.8438C45.1063 25.8438 42.8719 28.3281 42.8719 32.0469C42.8719 35.7578 45.1063 38.2344 48.6219 38.2344ZM48.6375 35.9687C46.6922 35.9687 45.7391 34.2344 45.7391 32.0391C45.7391 29.8437 46.6922 28.0859 48.6375 28.0859C50.5516 28.0859 51.5047 29.8437 51.5047 32.0391C51.5047 34.2344 50.5516 35.9687 48.6375 35.9687ZM59.2004 30.9687C59.2004 29.2344 60.2473 28.2344 61.7395 28.2344C63.2004 28.2344 64.0754 29.1953 64.0754 30.7969V38H66.9035V30.3594C66.9113 27.4844 65.2707 25.8438 62.7941 25.8438C60.9973 25.8438 59.7629 26.7031 59.216 28.0391H59.0754V26H56.3723V38H59.2004V30.9687ZM78.8629 29.1719C78.4723 27.1406 76.8473 25.8438 74.0348 25.8438C71.1441 25.8438 69.1754 27.2656 69.1832 29.4844C69.1754 31.2344 70.2535 32.3906 72.5582 32.8672L74.6051 33.2969C75.7066 33.5391 76.2223 33.9844 76.2223 34.6641C76.2223 35.4844 75.3316 36.1016 73.9879 36.1016C72.691 36.1016 71.8473 35.5391 71.6051 34.4609L68.8473 34.7266C69.1988 36.9297 71.0504 38.2344 73.9957 38.2344C76.9957 38.2344 79.1129 36.6797 79.1207 34.4062C79.1129 32.6953 78.0113 31.6484 75.7457 31.1562L73.6988 30.7188C72.4801 30.4453 71.9957 30.0234 72.0035 29.3281C71.9957 28.5156 72.8941 27.9531 74.0738 27.9531C75.3785 27.9531 76.066 28.6641 76.2848 29.4531L78.8629 29.1719Z" fill="black"/>
</svg>
